<svg xmlns="http://www.w3.org/2000/svg" viewBox="0 0 251.02 200.67"><defs><style>.cls-1{fill:#5dbfcb;}.cls-2{fill:#2176b2;}.cls-3{fill:#e25363;}.cls-4{fill:#523054;}.cls-5{fill:#fcfdfd;}.cls-6{fill:#1f294c;}.cls-7{fill:#fefdfd;}.cls-8{fill:#fdfdfd;}.cls-9{fill:#e25464;}.cls-10{fill:#fcfcfd;}.cls-11{fill:#fbfbfc;}.cls-12{fill:#2376b3;}.cls-13{fill:#222c4e;}.cls-14{fill:#262f51;}</style></defs><g id="Layer_1" data-name="Layer 1"><path class="cls-1" d="M183.49,288.93c-2.31.11-4.61.33-6.92.32-6.43,0-12.87,0-19.29-.25s-13-.76-19.31-2.54c-5.16-1.46-10.37-2.81-15.43-4.57a92.69,92.69,0,0,1-25-13.51,96.53,96.53,0,0,1-14.17-12.85,100.1,100.1,0,0,1-19.5-31.86,103.8,103.8,0,0,1-5.56-21.9,90.48,90.48,0,0,1-.77-18.6,101.43,101.43,0,0,1,5.71-28.28,100.08,100.08,0,0,1,45.07-53.34,112.23,112.23,0,0,1,21.44-9,89,89,0,0,1,22.31-3.78A97.39,97.39,0,0,1,178.87,91a3,3,0,0,1,.53.23c-1.91-.15-3.81-.41-5.71-.43a62.91,62.91,0,0,0-8.36.25,75.5,75.5,0,0,0-11.69,2.18A94.41,94.41,0,0,0,135.3,101,100.6,100.6,0,0,0,116,114.76a95.51,95.51,0,0,0-12,13.13,100.87,100.87,0,0,0-12.71,21.85,102.57,102.57,0,0,0-6,19.82c-.29,1.44-.39,2.91-.57,4.37-1.4,2.25-2.81,4.49-4.27,6.84-.25-.4-.45-.69-.63-1-1-1.65-1.93-3.31-2.92-4.95A3.4,3.4,0,0,0,73.89,173a4.26,4.26,0,0,0-3.81,2.08,3.32,3.32,0,0,0,.1,3.83c1.92,3.09,3.86,6.16,5.72,9.27a4.26,4.26,0,0,1,.55,2c.07,2.48,0,4.95,0,7.43a3.64,3.64,0,0,0,3.74,3.7,4.67,4.67,0,0,0,3.65-1.7,1.82,1.82,0,0,1,.24.51A97,97,0,0,0,88,218.5a98.87,98.87,0,0,0,9,20.29,91.71,91.71,0,0,0,12.3,16.71,129.72,129.72,0,0,0,10.8,10.16A91.75,91.75,0,0,0,142,279.28,82.17,82.17,0,0,0,157,284.6c3.32.78,6.66,1.53,10,2,4.55.71,9.14,1.18,13.71,1.77C181.68,288.54,182.58,288.76,183.49,288.93Z" transform="translate(-57.41 -88.59)"/><path class="cls-2" d="M84.62,173.93c.18-1.46.28-2.93.57-4.37a102.57,102.57,0,0,1,6-19.82,100.87,100.87,0,0,1,12.71-21.85,95.51,95.51,0,0,1,12-13.13A100.6,100.6,0,0,1,135.3,101a94.41,94.41,0,0,1,18.34-7.78A75.5,75.5,0,0,1,165.33,91a62.91,62.91,0,0,1,8.36-.25c1.9,0,3.8.28,5.71.43l3.78.81-.67.25c-1.68.4-3.41.7-5.06,1.24a99.85,99.85,0,0,0-44.13,28.72,99.5,99.5,0,0,0-24.11,50.89c-1.19-.12-2.38-.33-3.57-.33a14.39,14.39,0,0,0-4.59,28,16.77,16.77,0,0,0,7.8.49c.44,2.55.8,5.11,1.33,7.64a97.51,97.51,0,0,0,6.46,20,100.12,100.12,0,0,0,39.12,44.57,96.13,96.13,0,0,0,24.35,10.68c2.38.66,4.79,1.19,7.18,1.79l.28,2.6a1.18,1.18,0,0,0,0,.2l-2.84.13-.3,0h-.9c-.91-.17-1.81-.39-2.73-.51-4.57-.59-9.16-1.06-13.71-1.77-3.37-.52-6.71-1.27-10-2A82.17,82.17,0,0,1,142,279.28a91.75,91.75,0,0,1-21.84-13.62,129.72,129.72,0,0,1-10.8-10.16A91.71,91.71,0,0,1,97,238.79a98.87,98.87,0,0,1-9-20.29,97,97,0,0,1-3.92-18.37,1.82,1.82,0,0,0-.24-.51,24.78,24.78,0,0,0,.44-3.06c.07-2.19,0-4.38,0-6.57a3.86,3.86,0,0,1,.51-1.78c1.81-3,3.68-6,5.51-9,1.2-2,1.06-3.64-.36-5A3.89,3.89,0,0,0,84.62,173.93Z" transform="translate(-57.41 -88.59)"/><path class="cls-3" d="M187.53,288.77a1.18,1.18,0,0,1,0-.2c2.87-.08,5.76-.05,8.62-.27,3.21-.23,6.44-.54,9.62-1.08a82.6,82.6,0,0,0,20.39-6.74,100.19,100.19,0,0,0,47.89-46.14,99.83,99.83,0,0,0,9.91-33.4,7.61,7.61,0,0,0,1.51.34c3.24,0,6.48.11,9.71,0,3.77-.17,6.34-2.23,7-5.69a16.1,16.1,0,0,0,.27-5c-.49-4.44-3.16-6.71-7.64-6.77-1.44,0-2.87,0-4.31,0-1.17,0-1.89-.58-1.81-1.46.1-1.1.85-1.41,1.85-1.41,2.2,0,4.4,0,6.59,0,2.41,0,3.57-1.42,3.57-4.11,0-2.53-1.17-3.77-3.59-3.79-2.19,0-4.39,0-6.59,0a8.88,8.88,0,0,0-6.92,2.68c-.08-.39-.18-.77-.25-1.16a100.71,100.71,0,0,0-4.07-16.68,98.9,98.9,0,0,0-20.61-35,97.61,97.61,0,0,0-29.1-22.11c-4.17-2.07-8.48-3.88-12.77-5.69a87.79,87.79,0,0,0-8.3-3.06,42.62,42.62,0,0,0-11.4-1.82c7.95-1,15.91-1.55,23.89-.36a32.18,32.18,0,0,1,9.09,2.46,25.21,25.21,0,0,0,4.47,1.25,99.85,99.85,0,0,1,63.9,52.86,93.14,93.14,0,0,1,8.14,24.75,116.12,116.12,0,0,1,1.45,12,99.59,99.59,0,0,1,.21,11.84A96.82,96.82,0,0,1,305,216.08a99.62,99.62,0,0,1-54.5,64.23c-6.36,2.91-12.86,5.51-19.77,6.69A119.8,119.8,0,0,1,216,288.5c-7.9.35-15.81.37-23.72.48C190.72,289,189.13,288.84,187.53,288.77Z" transform="translate(-57.41 -88.59)"/><path class="cls-4" d="M197.19,90.14A42.62,42.62,0,0,1,208.59,92a87.79,87.79,0,0,1,8.3,3.06c4.29,1.81,8.6,3.62,12.77,5.69a97.61,97.61,0,0,1,29.1,22.11,98.9,98.9,0,0,1,20.61,35,100.71,100.71,0,0,1,4.07,16.68c.07.39.17.77.25,1.16-2.69,4.57-2.4,9.88.75,13.4l0,4.52a4.49,4.49,0,0,0-.42,7.34,99.37,99.37,0,0,1-24.68,55.12,98.69,98.69,0,0,1-33.12,24.42,82.6,82.6,0,0,1-20.39,6.74c-3.18.54-6.41.85-9.62,1.08-2.86.22-5.75.19-8.62.27-.09-.87-.18-1.74-.28-2.6,2.24-.69,4.51-1.3,6.71-2.07a99.77,99.77,0,0,0,36-22.06,103.32,103.32,0,0,0,11.87-13.55,101,101,0,0,0,10.81-18.85,91.79,91.79,0,0,0,6-19.08c.59-3,1-6,1.48-9,3.5-.11,4.61-1.25,4.62-4.76v-6.76c1.55,1.94,2.89,3.94,4.24,5.94.94,1.39,1.82,2.82,2.83,4.15a3.94,3.94,0,0,0,4.55,1.19,3.35,3.35,0,0,0,2.47-3.31q0-10.67,0-21.32a3.31,3.31,0,0,0-2.3-3.19,3.84,3.84,0,0,0-5.47,3.44c-.12,2.43,0,4.87-.05,7.31,0,.31-.06.63-.11,1.22-2.32-3.53-4.56-6.73-6.58-10.07a4,4,0,0,0-4.85-2c-.26-1.25-.54-2.49-.78-3.74a93.52,93.52,0,0,0-7.11-21.6,95.93,95.93,0,0,0-16.27-24.61A99.19,99.19,0,0,0,218,107.88a89.56,89.56,0,0,0-16.35-9.15c-4.81-2-9.8-3.49-14.73-5.17-1.46-.5-3-.87-4.45-1.3l.67-.25A43.14,43.14,0,0,1,197.19,90.14Z" transform="translate(-57.41 -88.59)"/><path class="cls-1" d="M184.39,288.92l.3,0Z" transform="translate(-57.41 -88.59)"/><path class="cls-5" d="M84.62,173.93a3.89,3.89,0,0,1,5.4.34c1.42,1.35,1.56,3,.36,5-1.83,3-3.7,6-5.51,9a3.86,3.86,0,0,0-.51,1.78c0,2.19,0,4.38,0,6.57a24.78,24.78,0,0,1-.44,3.06,4.67,4.67,0,0,1-3.65,1.7,3.64,3.64,0,0,1-3.74-3.7c0-2.48,0-5,0-7.43a4.26,4.26,0,0,0-.55-2c-1.86-3.11-3.8-6.18-5.72-9.27a3.32,3.32,0,0,1-.1-3.83A4.26,4.26,0,0,1,73.89,173a3.4,3.4,0,0,1,2.91,1.82c1,1.64,2,3.3,2.92,4.95.18.3.38.59.63,1C81.81,178.42,83.22,176.18,84.62,173.93Z" transform="translate(-57.41 -88.59)"/><path class="cls-6" d="M182.51,92.26c1.49.43,3,.8,4.45,1.3,4.93,1.68,9.92,3.2,14.73,5.17A89.56,89.56,0,0,1,218,107.88a99.19,99.19,0,0,1,17.34,15.32,95.93,95.93,0,0,1,16.27,24.61,93.52,93.52,0,0,1,7.11,21.6c.24,1.25.52,2.49.78,3.74a3.82,3.82,0,0,0-2.57,4c0,6.62,0,13.23,0,19.84,0,2.59.7,3.53,3.2,4.35-.49,3-.89,6-1.48,9a91.79,91.79,0,0,1-6,19.08,101,101,0,0,1-10.81,18.85A103.32,103.32,0,0,1,230,261.84a99.77,99.77,0,0,1-36,22.06c-2.2.77-4.47,1.38-6.71,2.07-2.39-.6-4.8-1.13-7.18-1.79a96.13,96.13,0,0,1-24.35-10.68,100.12,100.12,0,0,1-39.12-44.57,97.51,97.51,0,0,1-6.46-20c-.53-2.53-.89-5.09-1.33-7.64.27-.09.52-.19.79-.27a14.3,14.3,0,0,0,10.17-17c-1.31-5.7-5-9.24-10.6-10.92A100,100,0,0,1,177.45,93.5C179.1,93,180.83,92.66,182.51,92.26ZM201,189.85l.24-.08,3.32,5c1.13,1.69,2.23,3.41,3.42,5.06a3.94,3.94,0,0,0,4.5,1.35,3.36,3.36,0,0,0,2.62-3.32q0-10.66,0-21.33a3.31,3.31,0,0,0-2.38-3.25,3.84,3.84,0,0,0-5.4,3.55c-.1,2.39,0,4.79,0,7.19,0,.33-.05.65-.1,1.22-.37-.54-.59-.85-.8-1.17-2.06-3.14-4.13-6.27-6.17-9.41a3.19,3.19,0,0,0-2.63-1.62c-2.8-.14-4.38,1.32-4.39,4.12,0,5.79,0,11.58,0,17.37,0,1.16,0,2.32,0,3.47a3.54,3.54,0,0,0,3,3.3,3.81,3.81,0,0,0,4.79-3.78C201.05,194.94,201,192.39,201,189.85Zm-40.73,1.45c0,1.68,0,3.31,0,4.93a13.67,13.67,0,0,0,.11,2c.3,2,1.92,3.16,4.19,3a3.48,3.48,0,0,0,3.5-3.4c0-7.16,0-14.31,0-21.46a3.29,3.29,0,0,0-2.32-3.18,3.84,3.84,0,0,0-5.44,3.37c-.13,2.18,0,4.38,0,6.59H154c0-1.21,0-2.33,0-3.44s0-2.24,0-3.36a3.38,3.38,0,0,0-2.46-3.2,3.88,3.88,0,0,0-5.34,3.78c.05,5,0,10.07,0,15.11,0,1.88,0,3.76,0,5.63a3.89,3.89,0,0,0,7.76,0c.06-1.23,0-2.47,0-3.71V191.3Zm-29.13,10v0c1.55,0,3.12.06,4.67,0,3.78-.17,6.39-2.09,7.15-5.56a16,16,0,0,0,.29-5.34c-.53-4.32-3.17-6.5-7.56-6.57-1.48,0-3,0-4.44,0-1,0-1.7-.4-1.7-1.43s.71-1.43,1.69-1.43h5.88c3.46,0,4.84-1.61,4.36-5.07a3,3,0,0,0-3.14-2.84c-2.67,0-5.36-.08-8,0-3.8.15-6.53,2.21-7.21,5.67a18.8,18.8,0,0,0-.22,5.7c.43,3.6,2.43,5.51,6,6.19a10,10,0,0,0,1.55.14c1.44,0,2.88,0,4.32,0,.92,0,1.76.2,1.76,1.31s-.89,1.29-1.79,1.31h-1c-2.4,0-4.8,0-7.19,0-2.22,0-3.45,1.47-3.49,4s1.15,3.84,3.39,3.9C128,201.34,129.58,201.3,131.14,201.3Zm114.58-5.5c.35,1,.69,1.89,1,2.81A3.79,3.79,0,0,0,252,201c2.22-.88,3-2.88,2.05-5.2q-4.16-10-8.33-20a4,4,0,0,0-3.64-2.83,4.08,4.08,0,0,0-4,2.72q-4.59,10.07-9.16,20.13a3.56,3.56,0,0,0,2,5.11,3.8,3.8,0,0,0,5.25-2.07c.34-.81.59-1.66,1-2.44a1.3,1.3,0,0,1,.92-.63C240.63,195.78,243.15,195.8,245.72,195.8Zm-66.59-8.61c0-3.43,0-6.87,0-10.3a3.6,3.6,0,0,0-3.77-3.89,3.67,3.67,0,0,0-4.06,3.87c0,6.87-.06,13.74,0,20.61a4.53,4.53,0,0,0,1.13,2.76,3.77,3.77,0,0,0,4.43.75,3.42,3.42,0,0,0,2.23-3.49C179.12,194.06,179.13,190.63,179.13,187.19Zm11,0c0-3.43,0-6.87,0-10.3a3.61,3.61,0,0,0-3.75-3.91,3.67,3.67,0,0,0-4.08,3.85c0,6.87,0,13.74,0,20.61a3.55,3.55,0,0,0,2,3.42c2.37,1.2,5.93,0,5.85-3.48S190.17,190.61,190.17,187.21Zm36,.06h0c0-3.43,0-6.87,0-10.3,0-2.47-1.47-3.95-3.81-4a3.66,3.66,0,0,0-4,3.9c0,6.84,0,13.67,0,20.5a3.56,3.56,0,0,0,1.35,3.06,4.16,4.16,0,0,0,4.41.46,3.44,3.44,0,0,0,2.08-3.46C226.13,194.07,226.14,190.67,226.14,187.27Z" transform="translate(-57.41 -88.59)"/><path class="cls-5" d="M109.21,173.11c5.55,1.68,9.29,5.22,10.6,10.92a14.3,14.3,0,0,1-10.17,17c-.27.08-.52.18-.79.27a16.77,16.77,0,0,1-7.8-.49,14.39,14.39,0,0,1,4.59-28C106.83,172.78,108,173,109.21,173.11Zm-.84,8.2a6.44,6.44,0,1,0-.22,11.8,6.36,6.36,0,0,0,.22-11.8Z" transform="translate(-57.41 -88.59)"/><path class="cls-7" d="M284,200.94a4.49,4.49,0,0,1,.42-7.34c.71-.07,1.42-.19,2.13-.2,2.47,0,4.95,0,7.42,0,.9,0,1.76-.17,1.77-1.3s-.81-1.33-1.73-1.33c-1.32,0-2.63,0-3.95,0a9.16,9.16,0,0,1-5.62-1.67c-3.15-3.52-3.44-8.83-.75-13.4a8.88,8.88,0,0,1,6.92-2.68c2.2,0,4.4,0,6.59,0,2.42,0,3.58,1.26,3.59,3.79,0,2.69-1.16,4.07-3.57,4.11-2.19,0-4.39,0-6.59,0-1,0-1.75.31-1.85,1.41-.08.88.64,1.44,1.81,1.46,1.44,0,2.87,0,4.31,0,4.48.06,7.15,2.33,7.64,6.77a16.1,16.1,0,0,1-.27,5c-.71,3.46-3.28,5.52-7,5.69-3.23.14-6.47.05-9.71,0A7.61,7.61,0,0,1,284,200.94Z" transform="translate(-57.41 -88.59)"/><path class="cls-8" d="M260.19,201.33c-2.5-.82-3.2-1.76-3.2-4.35,0-6.61,0-13.22,0-19.84a3.82,3.82,0,0,1,2.57-4,4,4,0,0,1,4.85,2c2,3.34,4.26,6.54,6.58,10.07,0-.59.11-.91.11-1.22,0-2.44-.07-4.88.05-7.31a3.84,3.84,0,0,1,5.47-3.44,3.31,3.31,0,0,1,2.3,3.19q0,10.66,0,21.32a3.35,3.35,0,0,1-2.47,3.31,3.94,3.94,0,0,1-4.55-1.19c-1-1.33-1.89-2.76-2.83-4.15-1.35-2-2.69-4-4.24-5.94v6.76C264.8,200.08,263.69,201.22,260.19,201.33Z" transform="translate(-57.41 -88.59)"/><path class="cls-9" d="M284.44,189.08a9.16,9.16,0,0,0,5.62,1.67c1.32,0,2.63,0,3.95,0,.92,0,1.75.21,1.73,1.33s-.87,1.29-1.77,1.3c-2.47,0-5,0-7.42,0-.71,0-1.42.13-2.13.2C284.43,192.09,284.43,190.59,284.44,189.08Z" transform="translate(-57.41 -88.59)"/><path class="cls-8" d="M201,189.85c0,2.54.05,5.09,0,7.63a3.81,3.81,0,0,1-4.79,3.78,3.54,3.54,0,0,1-3-3.3c-.08-1.15,0-2.31,0-3.47,0-5.79,0-11.58,0-17.37,0-2.8,1.59-4.26,4.39-4.12a3.19,3.19,0,0,1,2.63,1.62c2,3.14,4.11,6.27,6.17,9.41.21.32.43.63.8,1.17,0-.57.1-.89.1-1.22,0-2.4-.06-4.8,0-7.19a3.84,3.84,0,0,1,5.4-3.55,3.31,3.31,0,0,1,2.38,3.25q0,10.66,0,21.33a3.36,3.36,0,0,1-2.62,3.32,3.94,3.94,0,0,1-4.5-1.35c-1.19-1.65-2.29-3.37-3.42-5.06l-3.32-5Z" transform="translate(-57.41 -88.59)"/><path class="cls-8" d="M160.27,191.3H154V194c0,1.24,0,2.48,0,3.71a3.89,3.89,0,0,1-7.76,0c-.09-1.87,0-3.75,0-5.63,0-5,0-10.07,0-15.11a3.88,3.88,0,0,1,5.34-3.78,3.38,3.38,0,0,1,2.46,3.2c0,1.12,0,2.24,0,3.36s0,2.23,0,3.44h6.29c0-2.21-.1-4.41,0-6.59a3.84,3.84,0,0,1,5.44-3.37,3.29,3.29,0,0,1,2.32,3.18c0,7.15,0,14.3,0,21.46a3.48,3.48,0,0,1-3.5,3.4c-2.27.12-3.89-1-4.19-3a13.67,13.67,0,0,1-.11-2C160.26,194.61,160.27,193,160.27,191.3Z" transform="translate(-57.41 -88.59)"/><path class="cls-8" d="M131.14,201.3c-1.56,0-3.12,0-4.68,0-2.24-.06-3.44-1.47-3.39-3.9s1.27-4,3.49-4c2.39,0,4.79,0,7.19,0h1c.9,0,1.78-.19,1.79-1.31s-.84-1.31-1.76-1.31c-1.44,0-2.88,0-4.32,0a10,10,0,0,1-1.55-.14c-3.56-.68-5.56-2.59-6-6.19a18.8,18.8,0,0,1,.22-5.7c.68-3.46,3.41-5.52,7.21-5.67,2.67-.1,5.36-.06,8,0a3,3,0,0,1,3.14,2.84c.48,3.46-.9,5.06-4.36,5.07h-5.88c-1,0-1.69.41-1.69,1.43s.74,1.43,1.7,1.43c1.48,0,3,0,4.44,0,4.39.07,7,2.25,7.56,6.57a16,16,0,0,1-.29,5.34c-.76,3.47-3.37,5.39-7.15,5.56-1.55.07-3.12,0-4.67,0Z" transform="translate(-57.41 -88.59)"/><path class="cls-10" d="M245.72,195.8c-2.57,0-5.09,0-7.6,0a1.3,1.3,0,0,0-.92.63c-.4.78-.65,1.63-1,2.44A3.8,3.8,0,0,1,231,201a3.56,3.56,0,0,1-2-5.11q4.56-10.06,9.16-20.13a4.08,4.08,0,0,1,4-2.72,4,4,0,0,1,3.64,2.83q4.16,10,8.33,20c1,2.32.17,4.32-2.05,5.2a3.79,3.79,0,0,1-5.28-2.39C246.41,197.69,246.07,196.76,245.72,195.8Zm-5.79-6.33h3.66l-1.71-4.88C241.19,186.33,240.58,187.86,239.93,189.47Z" transform="translate(-57.41 -88.59)"/><path class="cls-11" d="M179.13,187.19c0,3.44,0,6.87,0,10.31A3.42,3.42,0,0,1,176.9,201a3.77,3.77,0,0,1-4.43-.75,4.53,4.53,0,0,1-1.13-2.76c-.1-6.87-.08-13.74,0-20.61a3.67,3.67,0,0,1,4.06-3.87,3.6,3.6,0,0,1,3.77,3.89C179.16,180.32,179.13,183.76,179.13,187.19Z" transform="translate(-57.41 -88.59)"/><path class="cls-11" d="M190.17,187.21c0,3.4-.06,6.79,0,10.19s-3.48,4.68-5.85,3.48a3.55,3.55,0,0,1-2-3.42c0-6.87,0-13.74,0-20.61a3.67,3.67,0,0,1,4.08-3.85,3.61,3.61,0,0,1,3.75,3.91C190.19,180.34,190.17,183.78,190.17,187.21Z" transform="translate(-57.41 -88.59)"/><path class="cls-11" d="M226.14,187.27c0,3.4,0,6.8,0,10.19a3.44,3.44,0,0,1-2.08,3.46,4.16,4.16,0,0,1-4.41-.46,3.56,3.56,0,0,1-1.35-3.06c0-6.83,0-13.66,0-20.5a3.66,3.66,0,0,1,4-3.9c2.34,0,3.79,1.5,3.81,4,0,3.43,0,6.87,0,10.3Z" transform="translate(-57.41 -88.59)"/><path class="cls-12" d="M108.15,193.11a6.44,6.44,0,1,1,.22-11.8Q108.26,187.22,108.15,193.11Z" transform="translate(-57.41 -88.59)"/><path class="cls-13" d="M108.15,193.11q.12-5.9.22-11.8a6.36,6.36,0,0,1-.22,11.8Z" transform="translate(-57.41 -88.59)"/><path class="cls-14" d="M239.93,189.47c.65-1.61,1.26-3.14,1.95-4.88l1.71,4.88Z" transform="translate(-57.41 -88.59)"/></g></svg>